<svg xmlns="http://www.w3.org/2000/svg" viewBox="0 0 320 200" fill="none">
  <!-- Table header -->
  <rect x="10" y="10" width="300" height="30" rx="6" fill="currentColor" opacity="0.05"/>
  <rect x="20" y="20" width="60" height="6" rx="3" fill="currentColor" opacity="0.2"/>
  <rect x="100" y="20" width="50" height="6" rx="3" fill="currentColor" opacity="0.2"/>
  <rect x="170" y="20" width="40" height="6" rx="3" fill="currentColor" opacity="0.2"/>
  <rect x="240" y="20" width="50" height="6" rx="3" fill="currentColor" opacity="0.2"/>
  
  <!-- Row 1 -->
  <rect x="10" y="45" width="300" height="45" rx="0" fill="currentColor" opacity="0.02"/>
  <rect x="20" y="55" width="55" height="7" rx="3.5" fill="currentColor" opacity="0.15"/>
  <rect x="20" y="67" width="40" height="5" rx="2.5" fill="currentColor" opacity="0.08"/>
  <rect x="100" y="60" width="45" height="6" rx="3" fill="currentColor" opacity="0.1"/>
  <rect x="170" y="60" width="35" height="6" rx="3" fill="currentColor" opacity="0.15"/>
  <!-- Paid badge -->
  <rect x="235" y="56" width="45" height="18" rx="9" fill="hsl(172 66% 50%)" opacity="0.15"/>
  <rect x="245" y="62" width="25" height="6" rx="3" fill="hsl(172 66% 50%)" opacity="0.4"/>
  
  <!-- Row 2 -->
  <rect x="10" y="95" width="300" height="45" rx="0" fill="currentColor" opacity="0.0"/>
  <rect x="20" y="105" width="50" height="7" rx="3.5" fill="currentColor" opacity="0.15"/>
  <rect x="20" y="117" width="35" height="5" rx="2.5" fill="currentColor" opacity="0.08"/>
  <rect x="100" y="110" width="50" height="6" rx="3" fill="currentColor" opacity="0.1"/>
  <rect x="170" y="110" width="40" height="6" rx="3" fill="currentColor" opacity="0.15"/>
  <!-- Overdue badge -->
  <rect x="235" y="106" width="55" height="18" rx="9" fill="hsl(0 84% 60%)" opacity="0.15"/>
  <rect x="245" y="112" width="35" height="6" rx="3" fill="hsl(0 84% 60%)" opacity="0.4"/>
  
  <!-- Row 3 -->
  <rect x="10" y="145" width="300" height="45" rx="0" fill="currentColor" opacity="0.02"/>
  <rect x="20" y="155" width="60" height="7" rx="3.5" fill="currentColor" opacity="0.15"/>
  <rect x="20" y="167" width="45" height="5" rx="2.5" fill="currentColor" opacity="0.08"/>
  <rect x="100" y="160" width="45" height="6" rx="3" fill="currentColor" opacity="0.1"/>
  <rect x="170" y="160" width="38" height="6" rx="3" fill="currentColor" opacity="0.15"/>
  <!-- Pending badge -->
  <rect x="235" y="156" width="50" height="18" rx="9" fill="hsl(43 96% 58%)" opacity="0.15"/>
  <rect x="245" y="162" width="30" height="6" rx="3" fill="hsl(43 96% 58%)" opacity="0.4"/>
</svg>
