<svg xmlns="http://www.w3.org/2000/svg" viewBox="0 0 320 200" fill="none">
  <!-- Background cards -->
  <rect x="10" y="10" width="300" height="56" rx="8" fill="currentColor" opacity="0.05" stroke="currentColor" stroke-opacity="0.1"/>
  <rect x="10" y="76" width="300" height="56" rx="8" fill="currentColor" opacity="0.05" stroke="currentColor" stroke-opacity="0.1"/>
  <rect x="10" y="142" width="300" height="56" rx="8" fill="currentColor" opacity="0.03" stroke="currentColor" stroke-opacity="0.05"/>
  
  <!-- Avatar circles -->
  <circle cx="42" cy="38" r="18" fill="currentColor" opacity="0.15"/>
  <circle cx="42" cy="104" r="18" fill="currentColor" opacity="0.15"/>
  <circle cx="42" cy="170" r="18" fill="currentColor" opacity="0.08"/>
  
  <!-- User icons in circles -->
  <path d="M42 32c-2.2 0-4 1.8-4 4s1.8 4 4 4 4-1.8 4-4-1.8-4-4-4zm0 10c-4.4 0-8 1.8-8 4v2h16v-2c0-2.2-3.6-4-8-4z" fill="currentColor" opacity="0.4"/>
  <path d="M42 98c-2.2 0-4 1.8-4 4s1.8 4 4 4 4-1.8 4-4-1.8-4-4-4zm0 10c-4.4 0-8 1.8-8 4v2h16v-2c0-2.2-3.6-4-8-4z" fill="currentColor" opacity="0.4"/>
  <path d="M42 164c-2.2 0-4 1.8-4 4s1.8 4 4 4 4-1.8 4-4-1.8-4-4-4zm0 10c-4.4 0-8 1.8-8 4v2h16v-2c0-2.2-3.6-4-8-4z" fill="currentColor" opacity="0.2"/>
  
  <!-- Text lines - first card -->
  <rect x="70" y="28" width="100" height="8" rx="4" fill="currentColor" opacity="0.2"/>
  <rect x="70" y="42" width="60" height="6" rx="3" fill="currentColor" opacity="0.1"/>
  
  <!-- Badge - first card -->
  <rect x="240" y="30" width="50" height="18" rx="9" fill="currentColor" opacity="0.1"/>
  <rect x="250" y="36" width="30" height="6" rx="3" fill="currentColor" opacity="0.15"/>
  
  <!-- Text lines - second card -->
  <rect x="70" y="94" width="80" height="8" rx="4" fill="currentColor" opacity="0.2"/>
  <rect x="70" y="108" width="50" height="6" rx="3" fill="currentColor" opacity="0.1"/>
  
  <!-- Badge - second card -->
  <rect x="240" y="96" width="50" height="18" rx="9" fill="currentColor" opacity="0.1"/>
  <rect x="250" y="102" width="30" height="6" rx="3" fill="currentColor" opacity="0.15"/>
  
  <!-- Text lines - third card (faded) -->
  <rect x="70" y="160" width="90" height="8" rx="4" fill="currentColor" opacity="0.1"/>
  <rect x="70" y="174" width="55" height="6" rx="3" fill="currentColor" opacity="0.05"/>
</svg>
