<svg xmlns="http://www.w3.org/2000/svg" style="display:none">
<symbol id="i-chevron-down" viewBox="0 0 24 24"><path d="m6 9 6 6 6-6"></path></symbol>
<symbol id="i-chevron-right" viewBox="0 0 24 24"><path d="m9 18 6-6-6-6"></path></symbol>
<symbol id="i-menu" viewBox="0 0 24 24"><line x1="4" x2="20" y1="12" y2="12"></line><line x1="4" x2="20" y1="6" y2="6"></line><line x1="4" x2="20" y1="18" y2="18"></line></symbol>
<symbol id="i-music" viewBox="0 0 24 24"><path d="M9 18V5l12-2v13"></path><circle cx="6" cy="18" r="3"></circle><circle cx="18" cy="16" r="3"></circle></symbol>
<symbol id="i-external-link" viewBox="0 0 24 24"><path d="M15 3h6v6"></path><path d="M10 14 21 3"></path><path d="M18 13v6a2 2 0 0 1-2 2H5a2 2 0 0 1-2-2V8a2 2 0 0 1 2-2h6"></path></symbol>
<symbol id="i-arrow-right" viewBox="0 0 24 24"><path d="M5 12h14"></path><path d="m12 5 7 7-7 7"></path></symbol>
<symbol id="i-quote" viewBox="0 0 24 24"><path d="M16 3a2 2 0 0 0-2 2v6a2 2 0 0 0 2 2 1 1 0 0 1 1 1v1a2 2 0 0 1-2 2 1 1 0 0 0-1 1v2a1 1 0 0 0 1 1 6 6 0 0 0 6-6V5a2 2 0 0 0-2-2z"></path><path d="M5 3a2 2 0 0 0-2 2v6a2 2 0 0 0 2 2 1 1 0 0 1 1 1v1a2 2 0 0 1-2 2 1 1 0 0 0-1 1v2a1 1 0 0 0 1 1 6 6 0 0 0 6-6V5a2 2 0 0 0-2-2z"></path></symbol>
<symbol id="i-calendar" viewBox="0 0 24 24"><path d="M8 2v4"></path><path d="M16 2v4"></path><rect width="18" height="18" x="3" y="4" rx="2"></rect><path d="M3 10h18"></path></symbol>
<symbol id="i-repeat" viewBox="0 0 24 24"><path d="m17 2 4 4-4 4"></path><path d="M3 11v-1a4 4 0 0 1 4-4h14"></path><path d="m7 22-4-4 4-4"></path><path d="M21 13v1a4 4 0 0 1-4 4H3"></path></symbol>
<symbol id="i-message-square" viewBox="0 0 24 24"><path d="M21 15a2 2 0 0 1-2 2H7l-4 4V5a2 2 0 0 1 2-2h14a2 2 0 0 1 2 2z"></path></symbol>
<symbol id="i-receipt" viewBox="0 0 24 24"><path d="M4 2v20l2-1 2 1 2-1 2 1 2-1 2 1 2-1 2 1V2l-2 1-2-1-2 1-2-1-2 1-2-1-2 1Z"></path><path d="M16 8h-6a2 2 0 1 0 0 4h4a2 2 0 1 1 0 4H8"></path><path d="M12 17.5v-11"></path></symbol>
<symbol id="i-scale" viewBox="0 0 24 24"><path d="m16 16 3-8 3 8c-.87.65-1.92 1-3 1s-2.13-.35-3-1Z"></path><path d="m2 16 3-8 3 8c-.87.65-1.92 1-3 1s-2.13-.35-3-1Z"></path><path d="M7 21h10"></path><path d="M12 3v18"></path><path d="M3 7h2c2 0 5-1 7-2 2 1 5 2 7 2h2"></path></symbol>
<symbol id="i-heart" viewBox="0 0 24 24"><path d="M19 14c1.49-1.46 3-3.21 3-5.5A5.5 5.5 0 0 0 16.5 3c-1.76 0-3 .5-4.5 2-1.5-1.5-2.74-2-4.5-2A5.5 5.5 0 0 0 2 8.5c0 2.3 1.5 4.05 3 5.5l7 7Z"></path></symbol>
<symbol id="i-target" viewBox="0 0 24 24"><circle cx="12" cy="12" r="10"></circle><circle cx="12" cy="12" r="6"></circle><circle cx="12" cy="12" r="2"></circle></symbol>
<symbol id="i-users" viewBox="0 0 24 24"><path d="M16 21v-2a4 4 0 0 0-4-4H6a4 4 0 0 0-4 4v2"></path><circle cx="9" cy="7" r="4"></circle><path d="M22 21v-2a4 4 0 0 0-3-3.87"></path><path d="M16 3.13a4 4 0 0 1 0 7.75"></path></symbol>
<symbol id="i-lightbulb" viewBox="0 0 24 24"><path d="M15 14c.2-1 .7-1.7 1.5-2.5 1-.9 1.5-2.2 1.5-3.5A6 6 0 0 0 6 8c0 1 .2 2.2 1.5 3.5.7.7 1.3 1.5 1.5 2.5"></path><path d="M9 18h6"></path><path d="M10 22h4"></path></symbol>
<symbol id="i-mail" viewBox="0 0 24 24"><rect width="20" height="16" x="2" y="4" rx="2"></rect><path d="m22 7-8.97 5.7a1.94 1.94 0 0 1-2.06 0L2 7"></path></symbol>
<symbol id="i-map-pin" viewBox="0 0 24 24"><path d="M20 10c0 4.993-5.539 10.193-7.399 11.799a1 1 0 0 1-1.202 0C9.539 20.193 4 14.993 4 10a8 8 0 0 1 16 0"></path><circle cx="12" cy="10" r="3"></circle></symbol>
<symbol id="i-clock" viewBox="0 0 24 24"><circle cx="12" cy="12" r="10"></circle><polyline points="12 6 12 12 16 14"></polyline></symbol>
<symbol id="i-shield" viewBox="0 0 24 24"><path d="M20 13c0 5-3.5 7.5-7.66 8.95a1 1 0 0 1-.67-.01C7.5 20.5 4 18 4 13V6a1 1 0 0 1 1-1c2 0 4.5-1.2 6.24-2.72a1.17 1.17 0 0 1 1.52 0C14.51 3.81 17 5 19 5a1 1 0 0 1 1 1z"></path></symbol>
<symbol id="i-arrow-left" viewBox="0 0 24 24"><path d="m12 19-7-7 7-7"></path><path d="M19 12H5"></path></symbol>
<symbol id="i-user" viewBox="0 0 24 24"><path d="M19 21v-2a4 4 0 0 0-4-4H9a4 4 0 0 0-4 4v2"></path><circle cx="12" cy="7" r="4"></circle></symbol>
<symbol id="i-copy" viewBox="0 0 24 24"><rect width="14" height="14" x="8" y="8" rx="2" ry="2"></rect><path d="M4 16c-1.1 0-2-.9-2-2V4c0-1.1.9-2 2-2h10c1.1 0 2 .9 2 2"></path></symbol>
<symbol id="i-twitter" viewBox="0 0 24 24"><path d="M22 4s-.7 2.1-2 3.4c1.6 10-9.4 17.3-18 11.6 2.2.1 4.4-.6 6-2C3 15.5.5 9.6 3 5c2.2 2.6 5.6 4.1 9 4-.9-4.2 4-6.6 7-3.8 1.1 0 3-1.2 3-1.2z"></path></symbol>
<symbol id="i-linkedin" viewBox="0 0 24 24"><path d="M16 8a6 6 0 0 1 6 6v7h-4v-7a2 2 0 0 0-2-2 2 2 0 0 0-2 2v7h-4v-7a6 6 0 0 1 6-6z"></path><rect width="4" height="12" x="2" y="9"></rect><circle cx="4" cy="4" r="2"></circle></symbol>
<symbol id="i-book-open" viewBox="0 0 24 24"><path d="M12 7v14"></path><path d="M3 18a1 1 0 0 1-1-1V4a1 1 0 0 1 1-1h5a4 4 0 0 1 4 4 4 4 0 0 1 4-4h5a1 1 0 0 1 1 1v13a1 1 0 0 1-1 1h-6a3 3 0 0 0-3 3 3 3 0 0 0-3-3z"></path></symbol>
<symbol id="i-search" viewBox="0 0 24 24"><circle cx="11" cy="11" r="8"></circle><path d="m21 21-4.3-4.3"></path></symbol>
<symbol id="i-sparkles" viewBox="0 0 24 24"><path d="M9.937 15.5A2 2 0 0 0 8.5 14.063l-6.135-1.582a.5.5 0 0 1 0-.962L8.5 9.936A2 2 0 0 0 9.937 8.5l1.582-6.135a.5.5 0 0 1 .963 0L14.063 8.5A2 2 0 0 0 15.5 9.937l6.135 1.581a.5.5 0 0 1 0 .964L15.5 14.063a2 2 0 0 0-1.437 1.437l-1.582 6.135a.5.5 0 0 1-.963 0z"></path><path d="M20 3v4"></path><path d="M22 5h-4"></path><path d="M4 17v2"></path><path d="M5 18H3"></path></symbol>
<symbol id="i-zap" viewBox="0 0 24 24"><path d="M4 14a1 1 0 0 1-.78-1.63l9.9-10.2a.5.5 0 0 1 .86.46l-1.92 6.02A1 1 0 0 0 13 10h7a1 1 0 0 1 .78 1.63l-9.9 10.2a.5.5 0 0 1-.86-.46l1.92-6.02A1 1 0 0 0 11 14z"></path></symbol>
<symbol id="i-crown" viewBox="0 0 24 24"><path d="M11.562 3.266a.5.5 0 0 1 .876 0L15.39 8.87a1 1 0 0 0 1.516.294L21.183 5.5a.5.5 0 0 1 .798.519l-2.834 10.246a1 1 0 0 1-.956.734H5.81a1 1 0 0 1-.957-.734L2.02 6.02a.5.5 0 0 1 .798-.519l4.276 3.664a1 1 0 0 0 1.516-.294z"></path><path d="M5 21h14"></path></symbol>
<symbol id="i-check" viewBox="0 0 24 24"><path d="M20 6 9 17l-5-5"></path></symbol>
<symbol id="i-minus" viewBox="0 0 24 24"><path d="M5 12h14"></path></symbol>
<symbol id="i-building2" viewBox="0 0 24 24"><path d="M6 22V4a2 2 0 0 1 2-2h8a2 2 0 0 1 2 2v18Z"></path><path d="M6 12H4a2 2 0 0 0-2 2v6a2 2 0 0 0 2 2h2"></path><path d="M18 9h2a2 2 0 0 1 2 2v9a2 2 0 0 1-2 2h-2"></path><path d="M10 6h4"></path><path d="M10 10h4"></path><path d="M10 14h4"></path><path d="M10 18h4"></path></symbol>
<symbol id="i-graduation-cap" viewBox="0 0 24 24"><path d="M21.42 10.922a1 1 0 0 0-.019-1.838L12.83 5.18a2 2 0 0 0-1.66 0L2.6 9.08a1 1 0 0 0 0 1.832l8.57 3.908a2 2 0 0 0 1.66 0z"></path><path d="M22 10v6"></path><path d="M6 12.5V16a6 3 0 0 0 12 0v-3.5"></path></symbol>
<symbol id="i-calendar-days" viewBox="0 0 24 24"><path d="M8 2v4"></path><path d="M16 2v4"></path><rect width="18" height="18" x="3" y="4" rx="2"></rect><path d="M3 10h18"></path><path d="M8 14h.01"></path><path d="M12 14h.01"></path><path d="M16 14h.01"></path><path d="M8 18h.01"></path><path d="M12 18h.01"></path><path d="M16 18h.01"></path></symbol>
<symbol id="i-circle-check" viewBox="0 0 24 24"><circle cx="12" cy="12" r="10"></circle><path d="m9 12 2 2 4-4"></path></symbol>
<symbol id="i-pound-sterling" viewBox="0 0 24 24"><path d="M18 7c0-5.333-8-5.333-8 0"></path><path d="M10 7v14"></path><path d="M6 21h12"></path><path d="M6 13h10"></path></symbol>
<symbol id="i-palette" viewBox="0 0 24 24"><circle cx="13.5" cy="6.5" r=".5" fill="currentColor"></circle><circle cx="17.5" cy="10.5" r=".5" fill="currentColor"></circle><circle cx="8.5" cy="7.5" r=".5" fill="currentColor"></circle><circle cx="6.5" cy="12.5" r=".5" fill="currentColor"></circle><path d="M12 2C6.5 2 2 6.5 2 12s4.5 10 10 10c.926 0 1.648-.746 1.648-1.688 0-.437-.18-.835-.437-1.125-.29-.289-.438-.652-.438-1.125a1.64 1.64 0 0 1 1.668-1.668h1.996c3.051 0 5.555-2.503 5.555-5.554C21.965 6.012 17.461 2 12 2z"></path></symbol>
<symbol id="i-circle-help" viewBox="0 0 24 24"><circle cx="12" cy="12" r="10"></circle><path d="M9.09 9a3 3 0 0 1 5.83 1c0 2-3 3-3 3"></path><path d="M12 17h.01"></path></symbol>
<symbol id="i-cookie" viewBox="0 0 24 24"><path d="M12 2a10 10 0 1 0 10 10 4 4 0 0 1-5-5 4 4 0 0 1-5-5"></path><path d="M8.5 8.5v.01"></path><path d="M16 15.5v.01"></path><path d="M12 12v.01"></path><path d="M11 17v.01"></path><path d="M7 14v.01"></path></symbol>
<symbol id="i-settings" viewBox="0 0 24 24"><path d="M12.22 2h-.44a2 2 0 0 0-2 2v.18a2 2 0 0 1-1 1.73l-.43.25a2 2 0 0 1-2 0l-.15-.08a2 2 0 0 0-2.73.73l-.22.38a2 2 0 0 0 .73 2.73l.15.1a2 2 0 0 1 1 1.72v.51a2 2 0 0 1-1 1.74l-.15.09a2 2 0 0 0-.73 2.73l.22.38a2 2 0 0 0 2.73.73l.15-.08a2 2 0 0 1 2 0l.43.25a2 2 0 0 1 1 1.73V20a2 2 0 0 0 2 2h.44a2 2 0 0 0 2-2v-.18a2 2 0 0 1 1-1.73l.43-.25a2 2 0 0 1 2 0l.15.08a2 2 0 0 0 2.73-.73l.22-.39a2 2 0 0 0-.73-2.73l-.15-.08a2 2 0 0 1-1-1.74v-.5a2 2 0 0 1 1-1.74l.15-.09a2 2 0 0 0 .73-2.73l-.22-.38a2 2 0 0 0-2.73-.73l-.15.08a2 2 0 0 1-2 0l-.43-.25a2 2 0 0 1-1-1.73V4a2 2 0 0 0-2-2z"></path><circle cx="12" cy="12" r="3"></circle></symbol>
<symbol id="i-chart-column" viewBox="0 0 24 24"><path d="M3 3v16a2 2 0 0 0 2 2h16"></path><path d="M18 17V9"></path><path d="M13 17V5"></path><path d="M8 17v-3"></path></symbol>
<symbol id="i-clipboard-check" viewBox="0 0 24 24"><rect width="8" height="4" x="8" y="2" rx="1" ry="1"></rect><path d="M16 4h2a2 2 0 0 1 2 2v14a2 2 0 0 1-2 2H6a2 2 0 0 1-2-2V6a2 2 0 0 1 2-2h2"></path><path d="m9 14 2 2 4-4"></path></symbol>
<symbol id="i-x" viewBox="0 0 24 24"><path d="M18 6 6 18"></path><path d="m6 6 12 12"></path></symbol>
<symbol id="i-bell" viewBox="0 0 24 24"><path d="M6 8a6 6 0 0 1 12 0c0 7 3 9 3 9H3s3-2 3-9"></path><path d="M10.3 21a1.94 1.94 0 0 0 3.4 0"></path></symbol>
<symbol id="i-triangle-alert" viewBox="0 0 24 24"><path d="m21.73 18-8-14a2 2 0 0 0-3.48 0l-8 14A2 2 0 0 0 4 21h16a2 2 0 0 0 1.73-3"></path><path d="M12 9v4"></path><path d="M12 17h.01"></path></symbol>
<symbol id="i-circle-x" viewBox="0 0 24 24"><circle cx="12" cy="12" r="10"></circle><path d="m15 9-6 6"></path><path d="m9 9 6 6"></path></symbol>
<symbol id="i-circle-check-big" viewBox="0 0 24 24"><path d="M21.801 10A10 10 0 1 1 17 3.335"></path><path d="m9 11 3 3L22 4"></path></symbol>
<symbol id="i-file-text" viewBox="0 0 24 24"><path d="M15 2H6a2 2 0 0 0-2 2v16a2 2 0 0 0 2 2h12a2 2 0 0 0 2-2V7Z"></path><path d="M14 2v4a2 2 0 0 0 2 2h4"></path><path d="M10 9H8"></path><path d="M16 13H8"></path><path d="M16 17H8"></path></symbol>
<symbol id="i-layers" viewBox="0 0 24 24"><path d="m12.83 2.18a2 2 0 0 0-1.66 0L2.6 6.08a1 1 0 0 0 0 1.83l8.58 3.91a2 2 0 0 0 1.66 0l8.58-3.9a1 1 0 0 0 0-1.83Z"></path><path d="m22 17.65-9.17 4.16a2 2 0 0 1-1.66 0L2 17.65"></path><path d="m22 12.65-9.17 4.16a2 2 0 0 1-1.66 0L2 12.65"></path></symbol>
<symbol id="i-calculator" viewBox="0 0 24 24"><rect width="16" height="20" x="4" y="2" rx="2"></rect><line x1="8" x2="16" y1="6" y2="6"></line><line x1="16" x2="16" y1="14" y2="18"></line><path d="M16 10h.01"></path><path d="M12 10h.01"></path><path d="M8 10h.01"></path><path d="M12 14h.01"></path><path d="M8 14h.01"></path><path d="M12 18h.01"></path><path d="M8 18h.01"></path></symbol>
<symbol id="i-credit-card" viewBox="0 0 24 24"><rect width="20" height="14" x="2" y="5" rx="2"></rect><line x1="2" x2="22" y1="10" y2="10"></line></symbol>
<symbol id="i-refresh-cw" viewBox="0 0 24 24"><path d="M3 12a9 9 0 0 1 9-9 9.75 9.75 0 0 1 6.74 2.74L21 8"></path><path d="M21 3v5h-5"></path><path d="M21 12a9 9 0 0 1-9 9 9.75 9.75 0 0 1-6.74-2.74L3 16"></path><path d="M8 16H3v5"></path></symbol>
<symbol id="i-calendar-x" viewBox="0 0 24 24"><path d="M8 2v4"></path><path d="M16 2v4"></path><rect width="18" height="18" x="3" y="4" rx="2"></rect><path d="M3 10h18"></path><path d="m14 14-4 4"></path><path d="m10 14 4 4"></path></symbol>
<symbol id="i-percent" viewBox="0 0 24 24"><line x1="19" x2="5" y1="5" y2="19"></line><circle cx="6.5" cy="6.5" r="2.5"></circle><circle cx="17.5" cy="17.5" r="2.5"></circle></symbol>
<symbol id="i-calendar-check" viewBox="0 0 24 24"><path d="M8 2v4"></path><path d="M16 2v4"></path><rect width="18" height="18" x="3" y="4" rx="2"></rect><path d="M3 10h18"></path><path d="m9 16 2 2 4-4"></path></symbol>
<symbol id="i-square-split-vertical" viewBox="0 0 24 24"><path d="M5 8V5c0-1 1-2 2-2h10c1 0 2 1 2 2v3"></path><path d="M19 16v3c0 1-1 2-2 2H7c-1 0-2-1-2-2v-3"></path><line x1="4" x2="20" y1="12" y2="12"></line></symbol>
<symbol id="i-eye" viewBox="0 0 24 24"><path d="M2.062 12.348a1 1 0 0 1 0-.696 10.75 10.75 0 0 1 19.876 0 1 1 0 0 1 0 .696 10.75 10.75 0 0 1-19.876 0"></path><circle cx="12" cy="12" r="3"></circle></symbol>
<symbol id="i-shield-check" viewBox="0 0 24 24"><path d="M20 13c0 5-3.5 7.5-7.66 8.95a1 1 0 0 1-.67-.01C7.5 20.5 4 18 4 13V6a1 1 0 0 1 1-1c2 0 4.5-1.2 6.24-2.72a1.17 1.17 0 0 1 1.52 0C14.51 3.81 17 5 19 5a1 1 0 0 1 1 1z"></path><path d="m9 12 2 2 4-4"></path></symbol>
<symbol id="i-send" viewBox="0 0 24 24"><path d="M14.536 21.686a.5.5 0 0 0 .937-.024l6.5-19a.496.496 0 0 0-.635-.635l-19 6.5a.5.5 0 0 0-.024.937l7.93 3.18a2 2 0 0 1 1.112 1.11z"></path><path d="m21.854 2.147-10.94 10.939"></path></symbol>
<symbol id="i-mouse-pointer-click" viewBox="0 0 24 24"><path d="M14 4.1 12 6"></path><path d="m5.1 8-2.9-.8"></path><path d="m6 12-1.9 2"></path><path d="M7.2 2.2 8 5.1"></path><path d="M9.037 9.69a.498.498 0 0 1 .653-.653l11 4.5a.5.5 0 0 1-.074.949l-4.349 1.041a1 1 0 0 0-.74.739l-1.04 4.35a.5.5 0 0 1-.95.074z"></path></symbol>
<symbol id="i-file-spreadsheet" viewBox="0 0 24 24"><path d="M15 2H6a2 2 0 0 0-2 2v16a2 2 0 0 0 2 2h12a2 2 0 0 0 2-2V7Z"></path><path d="M14 2v4a2 2 0 0 0 2 2h4"></path><path d="M8 13h2"></path><path d="M14 13h2"></path><path d="M8 17h2"></path><path d="M14 17h2"></path></symbol>
<symbol id="i-briefcase" viewBox="0 0 24 24"><path d="M16 20V4a2 2 0 0 0-2-2h-4a2 2 0 0 0-2 2v16"></path><rect width="20" height="14" x="2" y="6" rx="2"></rect></symbol>
<symbol id="i-info" viewBox="0 0 24 24"><circle cx="12" cy="12" r="10"></circle><path d="M12 16v-4"></path><path d="M12 8h.01"></path></symbol>
<symbol id="i-lock" viewBox="0 0 24 24"><rect width="18" height="11" x="3" y="11" rx="2" ry="2"></rect><path d="M7 11V7a5 5 0 0 1 10 0v4"></path></symbol>
<symbol id="i-server" viewBox="0 0 24 24"><rect width="20" height="8" x="2" y="2" rx="2" ry="2"></rect><rect width="20" height="8" x="2" y="14" rx="2" ry="2"></rect><line x1="6" x2="6.01" y1="6" y2="6"></line><line x1="6" x2="6.01" y1="18" y2="18"></line></symbol>
<symbol id="i-download" viewBox="0 0 24 24"><path d="M21 15v4a2 2 0 0 1-2 2H5a2 2 0 0 1-2-2v-4"></path><polyline points="7 10 12 15 17 10"></polyline><line x1="12" x2="12" y1="15" y2="3"></line></symbol>
<symbol id="i-door-open" viewBox="0 0 24 24"><path d="M13 4h3a2 2 0 0 1 2 2v14"></path><path d="M2 20h3"></path><path d="M13 20h9"></path><path d="M10 12v.01"></path><path d="M13 4.562v16.157a1 1 0 0 1-1.242.97L5 20V5.562a2 2 0 0 1 1.515-1.94l4-1A2 2 0 0 1 13 4.561Z"></path></symbol>
<symbol id="i-bot" viewBox="0 0 24 24"><path d="M12 8V4H8"></path><rect width="16" height="12" x="4" y="8" rx="2"></rect><path d="M2 14h2"></path><path d="M20 14h2"></path><path d="M15 13v2"></path><path d="M9 13v2"></path></symbol>
<symbol id="i-brain" viewBox="0 0 24 24"><path d="M12 5a3 3 0 1 0-5.997.125 4 4 0 0 0-2.526 5.77 4 4 0 0 0 .556 6.588A4 4 0 1 0 12 18Z"></path><path d="M12 5a3 3 0 1 1 5.997.125 4 4 0 0 1 2.526 5.77 4 4 0 0 1-.556 6.588A4 4 0 1 1 12 18Z"></path><path d="M15 13a4.5 4.5 0 0 1-3-4 4.5 4.5 0 0 1-3 4"></path><path d="M17.599 6.5a3 3 0 0 0 .399-1.375"></path><path d="M6.003 5.125A3 3 0 0 0 6.401 6.5"></path><path d="M3.477 10.896a4 4 0 0 1 .585-.396"></path><path d="M19.938 10.5a4 4 0 0 1 .585.396"></path><path d="M6 18a4 4 0 0 1-1.967-.516"></path><path d="M19.967 17.484A4 4 0 0 1 18 18"></path></symbol>
<symbol id="i-check-check" viewBox="0 0 24 24"><path d="M18 6 7 17l-5-5"></path><path d="m22 10-7.5 7.5L13 16"></path></symbol>
<symbol id="i-paperclip" viewBox="0 0 24 24"><path d="m21.44 11.05-9.19 9.19a6 6 0 0 1-8.49-8.49l8.57-8.57A4 4 0 1 1 18 8.84l-8.59 8.57a2 2 0 0 1-2.83-2.83l8.49-8.48"></path></symbol>
<symbol id="i-inbox" viewBox="0 0 24 24"><polyline points="22 12 16 12 14 15 10 15 8 12 2 12"></polyline><path d="M5.45 5.11 2 12v6a2 2 0 0 0 2 2h16a2 2 0 0 0 2-2v-6l-3.45-6.89A2 2 0 0 0 16.76 4H7.24a2 2 0 0 0-1.79 1.11z"></path></symbol>
<symbol id="i-smartphone" viewBox="0 0 24 24"><rect width="14" height="20" x="5" y="2" rx="2" ry="2"></rect><path d="M12 18h.01"></path></symbol>
<symbol id="i-star" viewBox="0 0 24 24"><path d="M11.525 2.295a.53.53 0 0 1 .95 0l2.31 4.679a2.123 2.123 0 0 0 1.595 1.16l5.166.756a.53.53 0 0 1 .294.904l-3.736 3.638a2.123 2.123 0 0 0-.611 1.878l.882 5.14a.53.53 0 0 1-.771.56l-4.618-2.428a2.122 2.122 0 0 0-1.973 0L6.396 21.01a.53.53 0 0 1-.77-.56l.881-5.139a2.122 2.122 0 0 0-.611-1.879L2.16 9.795a.53.53 0 0 1 .294-.906l5.165-.755a2.122 2.122 0 0 0 1.597-1.16z"></path></symbol>
<symbol id="i-music2" viewBox="0 0 24 24"><circle cx="8" cy="18" r="4"></circle><path d="M12 18V2l7 4"></path></symbol>
<symbol id="i-flame" viewBox="0 0 24 24"><path d="M8.5 14.5A2.5 2.5 0 0 0 11 12c0-1.38-.5-2-1-3-1.072-2.143-.224-4.054 2-6 .5 2.5 2 4.9 4 6.5 2 1.6 3 3.5 3 5.5a7 7 0 1 1-14 0c0-1.153.433-2.294 1-3a2.5 2.5 0 0 0 2.5 2.5z"></path></symbol>
<symbol id="i-trophy" viewBox="0 0 24 24"><path d="M6 9H4.5a2.5 2.5 0 0 1 0-5H6"></path><path d="M18 9h1.5a2.5 2.5 0 0 0 0-5H18"></path><path d="M4 22h16"></path><path d="M10 14.66V17c0 .55-.47.98-.97 1.21C7.85 18.75 7 20.24 7 22"></path><path d="M14 14.66V17c0 .55.47.98.97 1.21C16.15 18.75 17 20.24 17 22"></path><path d="M18 2H6v7a6 6 0 0 0 12 0V2Z"></path></symbol>
<symbol id="i-timer" viewBox="0 0 24 24"><line x1="10" x2="14" y1="2" y2="2"></line><line x1="12" x2="15" y1="14" y2="11"></line><circle cx="12" cy="14" r="8"></circle></symbol>
<symbol id="i-trending-up" viewBox="0 0 24 24"><polyline points="22 7 13.5 15.5 8.5 10.5 2 17"></polyline><polyline points="16 7 22 7 22 13"></polyline></symbol>
<symbol id="i-chart-pie" viewBox="0 0 24 24"><path d="M21 12c.552 0 1.005-.449.95-.998a10 10 0 0 0-8.953-8.951c-.55-.055-.998.398-.998.95v8a1 1 0 0 0 1 1z"></path><path d="M21.21 15.89A10 10 0 1 1 8 2.83"></path></symbol>
<symbol id="i-filter" viewBox="0 0 24 24"><polygon points="22 3 2 3 10 12.46 10 19 14 21 14 12.46 22 3"></polygon></symbol>
<symbol id="i-folder-open" viewBox="0 0 24 24"><path d="m6 14 1.5-2.9A2 2 0 0 1 9.24 10H20a2 2 0 0 1 1.94 2.5l-1.54 6a2 2 0 0 1-1.95 1.5H4a2 2 0 0 1-2-2V5a2 2 0 0 1 2-2h3.9a2 2 0 0 1 1.69.9l.81 1.2a2 2 0 0 0 1.67.9H18a2 2 0 0 1 2 2v2"></path></symbol>
<symbol id="i-upload" viewBox="0 0 24 24"><path d="M21 15v4a2 2 0 0 1-2 2H5a2 2 0 0 1-2-2v-4"></path><polyline points="17 8 12 3 7 8"></polyline><line x1="12" x2="12" y1="3" y2="15"></line></symbol>
<symbol id="i-mic" viewBox="0 0 24 24"><path d="M12 2a3 3 0 0 0-3 3v7a3 3 0 0 0 6 0V5a3 3 0 0 0-3-3Z"></path><path d="M19 10v2a7 7 0 0 1-14 0v-2"></path><line x1="12" x2="12" y1="19" y2="22"></line></symbol>
<symbol id="i-image" viewBox="0 0 24 24"><rect width="18" height="18" x="3" y="3" rx="2" ry="2"></rect><circle cx="9" cy="9" r="2"></circle><path d="m21 15-3.086-3.086a2 2 0 0 0-2.828 0L6 21"></path></symbol>
<symbol id="i-tag" viewBox="0 0 24 24"><path d="M12.586 2.586A2 2 0 0 0 11.172 2H4a2 2 0 0 0-2 2v7.172a2 2 0 0 0 .586 1.414l8.704 8.704a2.426 2.426 0 0 0 3.42 0l6.58-6.58a2.426 2.426 0 0 0 0-3.42z"></path><circle cx="7.5" cy="7.5" r=".5" fill="currentColor"></circle></symbol>
<symbol id="i-grip-vertical" viewBox="0 0 24 24"><circle cx="9" cy="12" r="1"></circle><circle cx="9" cy="5" r="1"></circle><circle cx="9" cy="19" r="1"></circle><circle cx="15" cy="12" r="1"></circle><circle cx="15" cy="5" r="1"></circle><circle cx="15" cy="19" r="1"></circle></symbol>
<symbol id="i-phone" viewBox="0 0 24 24"><path d="M22 16.92v3a2 2 0 0 1-2.18 2 19.79 19.79 0 0 1-8.63-3.07 19.5 19.5 0 0 1-6-6 19.79 19.79 0 0 1-3.07-8.67A2 2 0 0 1 4.11 2h3a2 2 0 0 1 2 1.72 12.84 12.84 0 0 0 .7 2.81 2 2 0 0 1-.45 2.11L8.09 9.91a16 16 0 0 0 6 6l1.27-1.27a2 2 0 0 1 2.11-.45 12.84 12.84 0 0 0 2.81.7A2 2 0 0 1 22 16.92z"></path></symbol>
<symbol id="i-history" viewBox="0 0 24 24"><path d="M3 12a9 9 0 1 0 9-9 9.75 9.75 0 0 0-6.74 2.74L3 8"></path><path d="M3 3v5h5"></path><path d="M12 7v5l4 2"></path></symbol>
<symbol id="i-user-check" viewBox="0 0 24 24"><path d="M16 21v-2a4 4 0 0 0-4-4H6a4 4 0 0 0-4 4v2"></path><circle cx="9" cy="7" r="4"></circle><polyline points="16 11 18 13 22 9"></polyline></symbol>
<symbol id="i-guitar" viewBox="0 0 24 24"><path d="m11.9 12.1 4.514-4.514"></path><path d="M20.1 2.3a1 1 0 0 0-1.4 0l-1.114 1.114A2 2 0 0 0 17 4.828v1.344a2 2 0 0 1-.586 1.414A2 2 0 0 1 17.828 7h1.344a2 2 0 0 0 1.414-.586L21.7 5.3a1 1 0 0 0 0-1.4z"></path><path d="m6 16 2 2"></path><path d="M8.2 9.9C8.7 8.8 9.8 8 11 8c2.8 0 5 2.2 5 5 0 1.2-.8 2.3-1.9 2.8l-.9.4A2 2 0 0 0 12 18a4 4 0 0 1-4 4c-3.3 0-6-2.7-6-6a4 4 0 0 1 4-4 2 2 0 0 0 1.8-1.2z"></path><circle cx="11.5" cy="12.5" r=".5" fill="currentColor"></circle></symbol>
<symbol id="i-play" viewBox="0 0 24 24"><polygon points="6 3 20 12 6 21 6 3"></polygon></symbol>
<symbol id="i-user-x" viewBox="0 0 24 24"><path d="M16 21v-2a4 4 0 0 0-4-4H6a4 4 0 0 0-4 4v2"></path><circle cx="9" cy="7" r="4"></circle><line x1="17" x2="22" y1="8" y2="13"></line><line x1="22" x2="17" y1="8" y2="13"></line></symbol>
<symbol id="i-shield-alert" viewBox="0 0 24 24"><path d="M20 13c0 5-3.5 7.5-7.66 8.95a1 1 0 0 1-.67-.01C7.5 20.5 4 18 4 13V6a1 1 0 0 1 1-1c2 0 4.5-1.2 6.24-2.72a1.17 1.17 0 0 1 1.52 0C14.51 3.81 17 5 19 5a1 1 0 0 1 1 1z"></path><path d="M12 8v4"></path><path d="M12 16h.01"></path></symbol>
<symbol id="i-theater" viewBox="0 0 24 24"><path d="M2 10s3-3 3-8"></path><path d="M22 10s-3-3-3-8"></path><path d="M10 2c0 4.4-3.6 8-8 8"></path><path d="M14 2c0 4.4 3.6 8 8 8"></path><path d="M2 10s2 2 2 5"></path><path d="M22 10s-2 2-2 5"></path><path d="M8 15h8"></path><path d="M2 22v-1a2 2 0 0 1 2-2h4a2 2 0 0 1 2 2v1"></path><path d="M14 22v-1a2 2 0 0 1 2-2h4a2 2 0 0 1 2 2v1"></path></symbol>
<symbol id="i-globe" viewBox="0 0 24 24"><circle cx="12" cy="12" r="10"></circle><path d="M12 2a14.5 14.5 0 0 0 0 20 14.5 14.5 0 0 0 0-20"></path><path d="M2 12h20"></path></symbol>
<symbol id="i-banknote" viewBox="0 0 24 24"><rect width="20" height="12" x="2" y="6" rx="2"></rect><circle cx="12" cy="12" r="2"></circle><path d="M6 12h.01M18 12h.01"></path></symbol>
<symbol id="i-trash2" viewBox="0 0 24 24"><path d="M3 6h18"></path><path d="M19 6v14c0 1-1 2-2 2H7c-1 0-2-1-2-2V6"></path><path d="M8 6V4c0-1 1-2 2-2h4c1 0 2 1 2 2v2"></path><line x1="10" x2="10" y1="11" y2="17"></line><line x1="14" x2="14" y1="11" y2="17"></line></symbol>
<symbol id="i-calendar-off" viewBox="0 0 24 24"><path d="M4.2 4.2A2 2 0 0 0 3 6v14a2 2 0 0 0 2 2h14a2 2 0 0 0 1.82-1.18"></path><path d="M21 15.5V6a2 2 0 0 0-2-2H9.5"></path><path d="M16 2v4"></path><path d="M3 10h7"></path><path d="M21 10h-5.5"></path><path d="m2 2 20 20"></path></symbol>
<symbol id="i-user-plus" viewBox="0 0 24 24"><path d="M16 21v-2a4 4 0 0 0-4-4H6a4 4 0 0 0-4 4v2"></path><circle cx="9" cy="7" r="4"></circle><line x1="19" x2="19" y1="8" y2="14"></line><line x1="22" x2="16" y1="11" y2="11"></line></symbol>
<symbol id="i-message-circle" viewBox="0 0 24 24"><path d="M7.9 20A9 9 0 1 0 4 16.1L2 22Z"></path></symbol>
<symbol id="i-key" viewBox="0 0 24 24"><path d="m15.5 7.5 2.3 2.3a1 1 0 0 0 1.4 0l2.1-2.1a1 1 0 0 0 0-1.4L19 4"></path><path d="m21 2-9.6 9.6"></path><circle cx="7.5" cy="15.5" r="5.5"></circle></symbol>
<symbol id="i-headphones" viewBox="0 0 24 24"><path d="M3 14h3a2 2 0 0 1 2 2v3a2 2 0 0 1-2 2H5a2 2 0 0 1-2-2v-7a9 9 0 0 1 18 0v7a2 2 0 0 1-2 2h-1a2 2 0 0 1-2-2v-3a2 2 0 0 1 2-2h3"></path></symbol>
<symbol id="i-house" viewBox="0 0 24 24"><path d="M15 21v-8a1 1 0 0 0-1-1h-4a1 1 0 0 0-1 1v8"></path><path d="M3 10a2 2 0 0 1 .709-1.528l7-5.999a2 2 0 0 1 2.582 0l7 5.999A2 2 0 0 1 21 10v9a2 2 0 0 1-2 2H5a2 2 0 0 1-2-2z"></path></symbol>
<symbol id="i-piano" viewBox="0 0 24 24"><path d="M18.5 8c-1.4 0-2.6-.8-3.2-2A6.87 6.87 0 0 0 2 9v11a2 2 0 0 0 2 2h16a2 2 0 0 0 2-2v-8.5C22 9.6 20.4 8 18.5 8"></path><path d="M2 14h20"></path><path d="M6 14v4"></path><path d="M10 14v4"></path><path d="M14 14v4"></path><path d="M18 14v4"></path></symbol>
<symbol id="i-flag" viewBox="0 0 24 24"><path d="M4 15s1-1 4-1 5 2 8 2 4-1 4-1V3s-1 1-4 1-5-2-8-2-4 1-4 1z"></path><line x1="4" x2="4" y1="22" y2="15"></line></symbol>
</svg>
